<?xml version="1.0" standalone="no"?>
<!DOCTYPE svg PUBLIC "-//W3C//DTD SVG 20010904//EN"
 "http://www.w3.org/TR/2001/REC-SVG-20010904/DTD/svg10.dtd">

<svg version="1.0"
     xmlns="http://www.w3.org/2000/svg"
     width="800"
     height="600"
     viewBox="0 0 1100 1100"
     preserveAspectRatio="xMidYMid meet">

  <!-- <defs>
    <clipPath id="circular-clip">
      <circle cx="590" cy="590" r="400" />
    </clipPath>
  </defs>
<!--
  <!-- Dark blue (كحلي) circular background -->
 <!-- <circle cx="590" cy="590" r="500" fill="#04082B"/> -->

  <!-- Content with circular clip -->
  <!-- <g clip-path="url(#circular-clip)"> -->

     <!-- Dark blue background fill -->
  <!--   <circle cx="590" cy="590" r="300" fill="white"/> -->

    <!-- The main content - white text on dark blue background -->
    <g transform="translate(60.000000, 1000.500000) scale(0.100000,-0.100000)"
       fill="#04082B"
       stroke="none">

      <path d="M0 4045 l0 -4045 5400 0 5400 0 0 4045 0 4045 -5400 0 -5400 0 0
      -4045z m4608 1838 c-2 -12 -16 -20 -41 -24 -52 -8 -80 -25 -103 -62 -18 -30
      -19 -60 -24 -416 l-5 -383 -104 -34 c-57 -19 -105 -34 -107 -34 -2 0 -4 172
      -4 383 0 422 -4 458 -59 511 -18 17 -44 30 -70 33 -31 4 -41 10 -41 24 0 18
      13 19 281 19 261 0 280 -1 277 -17z m1862 -2 c0 -14 -10 -20 -41 -24 -61 -8
      -104 -53 -118 -124 -7 -39 -11 -293 -11 -810 0 -714 -1 -754 -17 -749 -10 3
      -40 10 -68 15 -27 6 -68 16 -90 24 l-40 14 -5 764 c-5 707 -6 766 -23 796 -22
      42 -56 63 -107 70 -30 4 -40 10 -40 24 0 18 13 19 280 19 267 0 280 -1 280
      -19z m-1597 -925 c72 -20 300 -129 327 -156 7 -7 80 -62 106 -80 22 -15 264
      -209 274 -220 13 -13 87 -68 108 -79 13 -7 35 -22 48 -34 54 -47 198 -127 308
      -171 252 -101 485 -84 698 50 21 13 38 28 38 32 0 4 -14 16 -30 25 -34 20 -55
      56 -65 109 -9 50 -3 64 73 170 64 89 67 94 50 111 -30 29 -23 83 20 149 39 61
      62 74 62 35 0 -13 11 -34 24 -46 25 -24 59 -30 257 -50 161 -16 220 -62 227
      -176 5 -69 -16 -122 -82 -208 -20 -26 -36 -50 -36 -54 0 -5 -36 -40 -73 -70
      -38 -31 -115 -45 -224 -41 -59 2 -115 7 -124 11 -10 5 -28 -4 -55 -31 -82 -80
      -207 -149 -324 -178 -113 -29 -337 -26 -445 5 -180 51 -377 144 -519 245 -17
      11 -38 26 -47 31 -43 26 -147 102 -169 122 -14 13 -41 34 -60 46 -19 12 -46
      32 -60 44 -14 13 -28 23 -32 23 -4 0 -18 11 -31 24 -13 13 -37 31 -53 40 -16
      9 -47 30 -69 47 -68 52 -218 119 -300 134 -107 21 -263 19 -351 -4 -145 -37
      -296 -140 -388 -263 -31 -42 -116 -175 -116 -183 0 -1 -9 -24 -21 -50 -47
      -106 -36 3 14 140 47 128 185 300 307 381 118 79 188 110 301 134 72 14 365 6
      432 -14z m-433 -716 c5 -512 6 -558 23 -588 18 -33 82 -71 120 -72 10 0 17 -8
      17 -20 0 -20 -5 -20 -272 -18 -265 3 -273 4 -273 23 0 16 9 21 42 26 48 6 64
      18 95 68 l23 36 3 521 3 521 52 21 c68 28 117 41 142 39 20 -2 20 -11 25 -557z
      m1825 -240 l33 0 4 -147 c3 -122 7 -155 23 -188 20 -40 62 -72 103 -78 12 -2
      27 -8 33 -14 29 -29 -5 -33 -272 -33 -257 0 -269 1 -269 19 0 21 19 31 55 31
      34 0 80 43 93 88 7 22 12 103 12 187 l0 148 77 -7 c42 -3 91 -6 108 -6z
      m-2195 -731 c0 -6 -22 -42 -48 -82 -27 -40 -58 -89 -71 -109 l-23 -38 50 0
      c49 0 74 13 85 42 9 25 19 -1 12 -31 l-7 -31 -104 0 c-57 0 -104 2 -104 5 0 3
      32 53 70 111 39 58 68 109 66 113 -6 8 -71 5 -86 -4 -6 -3 -10 -13 -10 -21 0
      -8 -4 -14 -10 -14 -5 0 -10 17 -10 38 l0 37 95 -3 c53 -2 95 -8 95 -13z m-746
      2 c3 -5 -1 -11 -9 -15 -10 -3 -15 -19 -15 -46 l0 -40 55 0 55 0 0 40 c0 27 -5
      43 -15 46 -32 13 -13 24 40 24 53 0 72 -11 40 -24 -12 -4 -15 -26 -15 -107 0
      -85 3 -104 18 -115 15 -12 9 -13 -43 -13 -52 0 -58 1 -42 13 12 9 17 27 17 60
      l0 46 -55 0 -55 0 0 -46 c0 -33 5 -51 18 -60 15 -12 9 -13 -43 -13 -52 0 -58
      1 -42 13 14 11 17 30 17 115 0 81 -3 103 -15 107 -8 4 -15 10 -15 15 0 12 97
      12 104 0z m401 -109 c23 -63 49 -118 60 -126 19 -14 16 -15 -39 -16 -49 0 -57
      2 -47 14 7 8 9 25 5 40 -5 22 -12 26 -45 26 -32 0 -41 -5 -51 -25 -10 -21 -8
      -28 8 -40 17 -13 15 -14 -30 -15 -49 0 -49 0 -30 19 17 15 47 85 94 214 6 16
      16 27 23 25 6 -3 30 -55 52 -116z m600 0 c23 -63 49 -118 60 -126 19 -14 16
      -15 -39 -16 -49 0 -57 2 -47 14 7 8 9 25 5 40 -5 22 -12 26 -45 26 -33 0 -41
      -4 -49 -26 -9 -21 -7 -29 7 -40 16 -12 12 -13 -29 -14 -53 0 -57 4 -29 28 16
      14 54 102 95 215 12 36 32 9 71 -101z m292 107 c34 -13 43 -25 43 -66 0 -21
      -7 -37 -21 -46 -20 -14 -20 -16 -4 -48 10 -19 28 -46 42 -60 14 -15 20 -29 15
      -33 -22 -13 -68 16 -97 62 -16 26 -34 47 -40 47 -5 0 -11 -16 -13 -37 -2 -28
      2 -40 20 -52 22 -15 20 -16 -42 -16 -64 0 -65 1 -42 18 22 17 22 21 16 115 -4
      54 -11 100 -15 103 -38 23 81 35 138 13z m578 -107 c23 -63 49 -118 60 -126
      19 -14 16 -15 -39 -16 -49 0 -57 2 -47 14 7 8 9 25 5 40 -5 22 -12 26 -45 26
      -33 0 -41 -4 -49 -26 -9 -21 -7 -29 7 -40 16 -12 12 -13 -31 -14 -49 0 -50 0
      -30 19 17 16 37 61 96 219 15 41 32 18 73 -96z m245 109 c0 -5 -7 -12 -15 -15
      -13 -5 -15 -23 -13 -108 l3 -103 31 -3 c31 -3 57 13 67 40 9 25 19 -1 12 -31
      l-7 -31 -96 0 c-83 1 -94 3 -79 14 24 19 26 226 1 226 -8 0 -12 5 -9 10 8 12
      105 13 105 1z m378 -36 l3 -40 -26 33 c-47 58 -125 37 -145 -38 -21 -79 31
      -167 93 -158 18 2 23 10 25 44 3 34 -1 42 -20 52 -20 9 -14 11 37 11 46 1 56
      -2 47 -11 -7 -7 -12 -33 -12 -59 l0 -47 -49 -7 c-106 -14 -181 36 -181 121 0
      97 55 146 160 142 l65 -3 3 -40z m202 36 c0 -5 -7 -11 -15 -15 -10 -3 -15 -19
      -15 -46 l0 -40 55 0 55 0 0 40 c0 27 -5 43 -15 46 -32 13 -13 24 40 24 53 0
      72 -11 40 -24 -12 -4 -15 -26 -15 -107 0 -85 3 -104 18 -115 15 -12 9 -13 -40
      -14 -32 0 -58 4 -58 10 0 6 7 10 15 10 11 0 15 12 15 50 l0 50 -55 0 -55 0 0
      -46 c0 -33 5 -51 18 -60 15 -12 9 -13 -43 -13 -52 0 -58 1 -42 13 14 11 17 30
      17 115 0 81 -3 103 -15 107 -32 13 -13 24 40 24 30 0 55 -4 55 -9z m394 -94
      c20 -57 36 -108 36 -114 0 -6 10 -18 23 -26 21 -15 19 -16 -38 -16 -33 0 -54
      3 -47 6 13 5 16 31 6 57 -4 11 -19 16 -43 16 -30 0 -40 -5 -49 -24 -8 -18 -7
      -27 6 -40 15 -15 13 -16 -33 -16 -49 0 -50 1 -28 18 11 9 37 60 56 112 20 52
      39 103 42 113 15 37 34 13 69 -86z m243 46 c26 -31 60 -70 75 -87 l27 -31 1
      72 c0 63 -2 72 -20 78 -33 10 -12 25 36 25 43 0 59 -12 29 -23 -11 -5 -15 -31
      -17 -122 -2 -64 -7 -116 -13 -118 -5 -1 -43 40 -85 91 l-75 93 -3 -73 c-3 -65
      -1 -74 20 -90 23 -17 23 -18 -31 -18 l-55 0 23 21 c21 20 23 28 19 111 -2 72
      -6 91 -20 99 -27 15 -21 29 11 29 24 0 40 -12 78 -57z m413 21 l0 -37 -25 27
      c-14 15 -35 26 -50 26 -23 0 -25 -3 -25 -50 0 -55 15 -64 58 -34 22 15 22 15
      22 -27 0 -40 -1 -41 -18 -26 -10 10 -29 17 -41 17 -20 0 -22 -4 -19 -47 3 -47
      4 -48 40 -51 28 -2 40 2 52 19 19 28 31 19 22 -16 -6 -25 -7 -25 -108 -25 -96
      0 -101 1 -80 16 20 14 22 23 22 113 0 79 -3 100 -15 105 -8 3 -15 10 -15 16 0
      6 35 10 90 10 l90 0 0 -36z m165 28 c6 -4 23 -36 38 -72 30 -72 44 -97 49 -90
      2 3 20 41 39 85 34 78 36 80 72 83 37 3 51 -11 21 -22 -13 -5 -15 -20 -8 -108
      5 -76 11 -106 23 -115 13 -10 6 -12 -43 -13 -57 0 -58 1 -43 18 13 14 17 38
      17 97 0 43 -3 75 -7 72 -4 -4 -23 -46 -43 -94 -20 -48 -40 -88 -46 -90 -5 -2
      -25 35 -43 82 -18 47 -37 88 -42 91 -5 3 -9 -29 -9 -72 0 -61 3 -79 18 -90 15
      -12 11 -13 -32 -14 -48 0 -49 0 -31 20 26 29 35 207 11 216 -9 3 -16 10 -16
      15 0 11 61 12 75 1z m305 -497 c0 -7 -740 -11 -2195 -13 -1207 -1 -2195 2
      -2195 6 0 5 3 12 7 15 11 12 4383 3 4383 -8z m-4255 -285 c0 -73 -2 -80 -20
      -80 -18 0 -20 7 -20 80 0 73 2 80 20 80 18 0 20 -7 20 -80z m142 23 l53 -58 0
      46 c0 25 -5 50 -12 57 -9 9 -6 12 16 12 22 0 26 -3 18 -13 -6 -7 -12 -44 -14
      -82 l-3 -70 -44 55 c-24 30 -47 57 -52 58 -12 5 -11 -65 1 -89 9 -17 7 -19
      -17 -19 -21 0 -24 3 -15 12 16 16 16 120 0 136 -9 9 -9 12 3 12 7 0 38 -25 66
      -57z m263 35 c-1 -21 -2 -21 -11 -5 -5 9 -17 17 -24 17 -20 0 -22 -136 -2
      -143 6 -3 -3 -6 -21 -6 -29 -1 -32 1 -22 18 5 11 10 43 10 71 0 54 -17 73 -45
      50 -12 -10 -15 -9 -15 4 0 13 12 16 65 16 61 0 65 -1 65 -22z m160 1 c0 -19
      -1 -19 -16 -5 -22 22 -44 20 -44 -4 0 -11 0 -23 -1 -27 -1 -14 34 -15 42 -1 6
      9 8 3 8 -17 0 -16 -3 -24 -6 -17 -2 6 -13 12 -24 12 -15 0 -19 -7 -19 -30 0
      -38 23 -49 50 -25 19 17 20 17 20 -3 0 -20 -5 -22 -61 -22 -51 0 -58 2 -47 14
      10 9 12 31 8 80 l-5 66 47 0 c42 0 48 -3 48 -21z m164 -1 c14 -20 14 -24 0
      -46 -14 -22 -14 -26 11 -58 20 -27 23 -34 10 -34 -9 0 -25 16 -36 35 -12 19
      -25 35 -29 35 -14 0 -20 -31 -10 -51 9 -16 7 -19 -12 -19 -22 0 -23 3 -23 80
      l0 80 37 0 c27 0 41 -6 52 -22z m131 -58 c0 -77 -1 -80 -23 -80 -19 0 -21 3
      -13 18 11 21 9 111 -3 130 -5 8 0 12 16 12 22 0 23 -3 23 -80z m195 60 c13
      -13 20 -33 20 -60 0 -51 -27 -80 -74 -80 -68 0 -101 86 -51 135 30 31 77 33
      105 5z m175 6 c17 -12 18 -26 1 -67 -5 -10 3 -28 19 -48 17 -19 22 -31 13 -31
      -18 0 -31 11 -51 43 -10 15 -22 27 -27 27 -15 0 -12 -57 3 -63 6 -3 -4 -6 -22
      -6 -27 -1 -32 2 -23 11 16 16 16 120 0 136 -17 17 63 16 87 -2z m266 -2 c10
      -13 10 -20 0 -36 -9 -15 -9 -23 0 -34 14 -17 31 -9 27 14 -2 11 5 18 20 20 12
      2 22 -1 22 -7 0 -6 -4 -11 -10 -11 -5 0 -14 -9 -20 -20 -8 -15 -7 -26 6 -45
      18 -27 5 -35 -16 -10 -12 14 -15 14 -30 0 -20 -18 -51 -20 -68 -3 -15 15 -16
      54 -2 63 6 3 10 21 10 39 0 18 3 36 7 39 12 12 40 7 54 -9z m319 1 c0 -8 -4
      -15 -10 -15 -5 0 -10 5 -10 11 0 6 -11 10 -22 7 -17 -2 -24 -11 -26 -32 -3 -27
      -2 -29 27 -23 27 6 31 4 31 -15 0 -17 -3 -19 -12 -10 -7 7 -20 12 -31 12 -15 0
      -18 -6 -15 -32 4 -39 30 -48 60 -21 20 18 20 17 17 -2 -4 -17 -13 -20 -64 -23
      -48 -2 -58 -1 -47 9 7 8 12 39 12 75 0 41 -4 64 -12 67 -7 3 13 6 45 6 44 1 57
      -2 57 -14z m110 -4 c0 -11 5 -23 11 -27 13 -8 31 16 24 34 -3 7 5 12 21 12 l25
      0 -27 -36 -27 -35 31 -45 32 -44 -25 0 c-18 0 -25 5 -25 19 0 10 -7 24 -16 32
      -13 10 -17 10 -25 -2 -5 -8 -7 -22 -5 -31 3 -14 -2 -18 -24 -18 l-28 0 29 31
      c36 38 36 59 3 98 l-26 31 26 0 c19 0 26 -5 26 -19z m270 8 c0 -7 -11 -8 -30
      -4 l-30 7 0 -64 c0 -36 5 -69 12 -76 9 -9 4 -12 -22 -12 -26 0 -31 3 -22 12 17
      17 16 138 -1 138 -7 0 -18 -5 -25 -12 -9 -9 -12 -8 -12 5 0 14 10 17 65 17 40 0
      65 -4 65 -11z m154 -4 c3 -8 1 -15 -4 -15 -6 0 -10 5 -10 10 0 6 -11 10 -25 10
      -21 0 -25 -5 -25 -31 0 -28 3 -31 24 -27 15 3 27 0 30 -8 4 -10 -2 -12 -24 -7
      -28 5 -30 4 -30 -26 0 -37 23 -50 52 -32 22 13 34 9 23 -8 -3 -6 -32 -11 -63
      -11 -43 0 -53 3 -44 12 7 7 12 37 12 68 0 31 -5 61 -12 68 -9 9 -1 12 39 12 36
      0 53 -4 57 -15z m164 3 c15 -15 16 -54 2 -63 -15 -10 -12 -21 16 -54 19 -23 22
      -31 10 -31 -8 0 -28 16 -43 35 -15 19 -31 35 -35 35 -13 0 -9 -45 4 -58 9 -9 4
      -12 -22 -12 -26 0 -31 3 -22 12 15 15 16 102 2 129 -10 17 -7 19 33 19 23 0 48
      -5 55 -12z m134 0 c-7 -7 -12 -37 -12 -68 0 -31 5 -61 12 -68 9 -9 4 -12 -22
      -12 -23 0 -30 3 -22 9 10 6 13 28 10 80 -3 70 -3 71 22 71 19 0 21 -3 12 -12z
      m195 -10 c48 -45 16 -138 -48 -138 -42 0 -60 10 -74 43 -15 36 -5 82 22 103 27
      20 74 17 100 -8z m177 6 c20 -19 20 -38 1 -54 -13 -11 -13 -16 2 -41 10 -16 21
      -29 25 -29 4 0 8 -4 8 -10 0 -23 -30 -8 -50 25 -12 19 -26 35 -32 35 -6 0 -8
      -15 -6 -35 4 -31 1 -35 -19 -35 -20 0 -22 3 -13 19 14 27 13 114 -2 129 -9 9
      -3 12 29 12 24 0 48 -7 57 -16z m284 10 c48 -13 61 -93 22 -129 -11 -10 -42 -18
      -76 -21 -33 -2 -53 -1 -46 2 16 8 16 126 0 142 -9 9 -2 12 33 12 24 0 54 -3 67
      -6z m207 -5 c11 -17 -3 -23 -20 -9 -22 18 -45 5 -45 -26 0 -24 3 -26 30 -20 22
      4 30 2 30 -9 0 -7 -4 -17 -10 -20 -5 -3 -10 -1 -10 4 0 6 -9 11 -21 11 -17 0
      -20 -5 -17 -32 4 -39 30 -49 58 -23 18 16 18 16 13 -4 -5 -18 -13 -21 -61 -21
      -44 0 -53 3 -44 12 7 7 12 37 12 68 0 31 -5 61 -12 68 -9 9 -1 12 39 12 29 0
      55 -5 58 -11z m145 -5 c0 -13 -3 -14 -15 -4 -18 15 -45 6 -45 -14 0 -8 16 -24
      35 -36 57 -35 42 -96 -22 -88 -19 2 -29 9 -31 23 -3 19 -2 19 11 3 18 -23 46
      -23 54 -1 4 11 -5 26 -32 49 -36 30 -38 34 -27 58 9 20 19 26 42 26 21 0 30 -5
      30 -16z m112 4 c-7 -7 -12 -37 -12 -68 0 -31 5 -61 12 -68 9 -9 7 -12 -12 -12
      -24 0 -25 2 -25 80 0 78 1 80 25 80 19 0 21 -3 12 -12z m201 -3 c4 -8 2 -17 -2
      -20 -5 -3 -11 2 -15 10 -6 16 -43 20 -62 7 -51 -34 -28 -132 32 -132 27 0 41 34
      24 55 -10 12 -9 15 9 15 19 0 22 -5 19 -37 -3 -37 -4 -38 -47 -41 -34 -3 -49 2
      -67 19 -34 32 -33 90 2 118 32 25 99 29 107 6z m144 -42 l53 -58 0 52 c0 32 -5
      53 -12 56 -7 3 0 6 16 6 22 1 26 -2 18 -12 -6 -7 -12 -44 -14 -81 l-3 -69 -45
      57 c-25 31 -48 56 -52 56 -12 0 -10 -68 2 -91 9 -17 7 -19 -17 -18 -15 0 -22 3
      -15 6 16 6 16 125 0 141 -9 9 -9 12 3 12 7 0 38 -25 66 -57z"/>

      <path d="M7028 4586 c3 -59 -1 -85 -17 -122 -12 -26 -20 -49 -18 -50 13 -13
      113 -21 167 -14 95 12 116 19 130 45 14 27 7 83 -17 128 -19 38 -99 73 -183
      81 l-65 6 3 -74z"/>
      <path d="M6794 4566 c-10 -26 16 -76 49 -93 17 -8 38 -22 45 -30 13 -13 17
      -12 30 1 13 13 13 22 4 54 -15 49 -39 71 -86 79 -27 4 -37 2 -42 -11z"/>
      <path d="M3641 3169 c-14 -41 -15 -39 15 -39 24 0 25 3 19 28 -10 42 -22 46
      -34 11z"/>
      <path d="M4241 3169 c-14 -41 -15 -39 15 -39 24 0 25 3 19 28 -10 42 -22 46
      -34 11z"/>
      <path d="M4547 3253 c-10 -9 -9 -101 1 -107 19 -12 57 20 60 50 4 43 -37 82
      -61 57z"/>
      <path d="M5117 3188 c-4 -14 -10 -33 -13 -42 -5 -12 0 -16 20 -16 29 0 31 11
      12 55 l-13 30 -6 -27z"/>
      <path d="M6333 3165 c-11 -33 -10 -35 13 -35 25 0 28 9 18 48 -9 31 -19 27
      -31 -13z"/>
      <path d="M3959 2552 c-7 -40 -2 -57 16 -57 29 0 34 50 6 58 -12 3 -22 2 -22
      -1z"/>
      <path d="M4252 2548 c-7 -7 -12 -31 -12 -53 0 -44 22 -75 53 -75 22 0 47 38
      47 72 0 50 -58 86 -88 56z"/>
      <path d="M4466 2553 c-12 -12 -6 -63 7 -63 17 0 37 20 37 37 0 14 -34 35 -44
      26z"/>
      <path d="M4740 2541 c0 -11 4 -22 9 -25 11 -7 23 22 15 35 -9 16 -24 10 -24
      -10z"/>
      <path d="M4727 2483 c-14 -14 -6 -42 14 -48 32 -10 46 10 24 35 -19 21 -28 24
      -38 13z"/>
      <path d="M5746 2553 c-12 -12 -6 -63 7 -63 17 0 37 20 37 37 0 14 -34 35 -44
      26z"/>
      <path d="M6039 2544 c-7 -9 -14 -34 -14 -55 0 -66 64 -92 94 -38 34 61 -37
      144 -80 93z"/>
      <path d="M6256 2553 c-3 -4 -6 -19 -6 -35 0 -39 34 -35 38 3 3 25 -18 46 -32
      32z"/>
      <path d="M6527 2553 c-14 -13 -7 -110 8 -123 23 -19 69 17 73 58 5 47 -53 93
      -81 65z"/>
    </g>
  </g>

 

</svg>
